<svg width="28" height="28" viewBox="0 0 28 28" fill="none" xmlns="http://www.w3.org/2000/svg">
<path fill-rule="evenodd" clip-rule="evenodd" d="M0 4.375C0 1.95875 1.95875 0 4.375 0H23.625C26.0412 0 28 1.95875 28 4.375V23.625C28 26.0412 26.0412 28 23.625 28H4.375C1.95875 28 0 26.0412 0 23.625V4.375ZM14 7C10.6875 7 8 9.6875 8 13C8 16.3125 10.6875 19 14 19C17.3125 19 20 16.3125 20 13C20 9.6875 17.3125 7 14 7ZM14 17C11.7875 17 10 15.2125 10 13C10 10.7875 11.7875 9 14 9C16.2125 9 18 10.7875 18 13C18 15.2125 16.2125 17 14 17ZM20.25 5.25C19.5625 5.25 19 5.8125 19 6.5C19 7.1875 19.5625 7.75 20.25 7.75C20.9375 7.75 21.5 7.1875 21.5 6.5C21.5 5.8125 20.9375 5.25 20.25 5.25ZM8.75 4.375C6.95875 4.375 5.5 5.83375 5.5 7.625V20.375C5.5 22.1662 6.95875 23.625 8.75 23.625H19.25C21.0412 23.625 22.5 22.1662 22.5 20.375V7.625C22.5 5.83375 21.0412 4.375 19.25 4.375H8.75Z" fill="#262626"/>
</svg>
